<svg xmlns="http://www.w3.org/2000/svg" xml:space="preserve" aria-labelledby="dividenz-logo-title" viewBox="0 0 336.91 109.02">
  <path d="M45.68.64V70.3H34.81l-.19-2.97c-1.8 1.3-3.67 2.27-5.62 2.93-1.95.65-4.26.97-6.92.97-4.52 0-8.41-1.08-11.66-3.25s-5.71-5.08-7.38-8.73C1.37 55.6.53 51.57.53 47.18c0-4.4.84-8.42 2.51-12.08 1.67-3.65 4.13-6.56 7.38-8.73 3.25-2.17 7.14-3.25 11.66-3.25 4.52 0 8.55 1.24 12.07 3.72V.64h11.53zm-13.7 57.21c1.83-2.6 2.74-6.16 2.74-10.68s-.91-8.08-2.74-10.68c-1.83-2.6-4.57-3.9-8.22-3.9-3.59 0-6.39 1.33-8.41 3.99-2.01 2.66-3.02 6.19-3.02 10.59 0 4.4 1.01 7.93 3.02 10.59s4.81 3.99 8.41 3.99c3.65 0 6.39-1.3 8.22-3.9m22.52-34h11.52v46.44H54.5zm15.32 0h11.33l11.43 32.14L104 23.85h11.34L97.5 70.3h-9.84zm49.32 0h11.52v46.44h-11.52zM181.93.64V70.3h-10.87l-.19-2.97c-1.8 1.3-3.67 2.27-5.62 2.93-1.95.65-4.26.97-6.92.97-4.52 0-8.41-1.08-11.66-3.25s-5.71-5.08-7.38-8.73c-1.67-3.65-2.51-7.68-2.51-12.07 0-4.4.84-8.42 2.51-12.08 1.67-3.65 4.13-6.56 7.38-8.73 3.25-2.17 7.14-3.25 11.66-3.25 4.52 0 8.55 1.24 12.07 3.72V.64h11.53zm-13.7 57.21c1.83-2.6 2.74-6.16 2.74-10.68s-.91-8.08-2.74-10.68c-1.83-2.6-4.57-3.9-8.22-3.9-3.59 0-6.39 1.33-8.41 3.99-2.01 2.66-3.02 6.19-3.02 10.59 0 4.4 1.01 7.93 3.02 10.59s4.81 3.99 8.41 3.99c3.65 0 6.39-1.3 8.22-3.9m31.11 10.08c-3.81-2.2-6.66-5.14-8.55-8.82s-2.83-7.79-2.83-12.31c0-4.33.9-8.3 2.69-11.89 1.8-3.59 4.4-6.45 7.8-8.59 3.41-2.14 7.46-3.2 12.17-3.2 4.33 0 8 .9 11.01 2.69 3 1.8 5.26 4.21 6.78 7.24 1.52 3.03 2.28 6.44 2.28 10.22 0 1.86-.25 3.96-.74 6.32h-30c.62 4.09 2.23 7.14 4.83 9.15 2.6 2.01 5.73 3.02 9.38 3.02 5.02 0 9.66-1.27 13.93-3.81l.56 9.75c-1.98 1.05-4.29 1.9-6.92 2.55-2.63.65-5.5.97-8.59.97-5.39 0-9.99-1.09-13.8-3.29m19.65-26.15c0-2.41-.68-4.55-2.04-6.41-1.36-1.86-3.47-2.79-6.32-2.79s-5.14.84-6.87 2.51c-1.73 1.67-2.91 3.9-3.53 6.69h18.76zm54.24-12.91c2.97 3.84 4.46 9.01 4.46 15.51V70.3h-11.52V45.31c0-4.33-.73-7.54-2.18-9.61-1.46-2.07-3.79-3.11-7.01-3.11-3.53 0-6.44 1.33-8.73 3.99V70.3h-11.52V23.85h10.78l.19 3.25c3.9-2.66 8.05-3.99 12.45-3.99 5.74 0 10.11 1.92 13.08 5.76m49.97 31.67v9.76h-40.78L305 33.61h-20.44v-9.76h38.45l-22.57 36.69z" class="st0"/>
  <path fill="currentColor" d="M331.76 32.31c-2.5 0-4.53-2.03-4.53-4.53s2.03-4.53 4.53-4.53 4.53 2.03 4.53 4.53-2.04 4.53-4.53 4.53zm0-8.41c-2.14 0-3.88 1.74-3.88 3.88s1.74 3.88 3.88 3.88 3.88-1.74 3.88-3.88-1.74-3.88-3.88-3.88z"/>
  <path d="M329.83 30.21v-5.06h2.15c.41 0 .76.05 1.07.17.3.11.54.28.71.51.17.23.25.51.25.86 0 .37-.09.67-.28.88-.18.22-.43.39-.73.52l1.33 2.12h-1.2L332 28.34h-1.09v1.88h-1.08zm1.08-2.65h.79c.44 0 .75-.08.92-.23.17-.15.26-.35.26-.59 0-.25-.09-.45-.26-.59-.17-.14-.47-.21-.89-.21h-.83v1.62zM66.85 12.92c0 3.41-2.77 6.18-6.18 6.18-3.41 0-6.18-2.77-6.18-6.18 0-3.41 2.77-6.18 6.18-6.18 3.42.01 6.18 2.77 6.18 6.18m63.84 0c0 3.41-2.77 6.18-6.18 6.18-3.41 0-6.18-2.77-6.18-6.18 0-3.41 2.77-6.18 6.18-6.18 3.42.01 6.18 2.77 6.18 6.18m17.8 82.11v-2.38h6.66v10h-2.12l-.25-2.72c-.99 1.73-3 2.95-5.58 2.95-2.44 0-4.53-.88-6.26-2.63s-2.58-4.25-2.58-7.5.88-5.75 2.61-7.5 3.85-2.63 6.34-2.63c4.08 0 6.88 2.29 7.79 6l-2.41.71c-.93-2.89-2.75-4.33-5.38-4.33-1.9 0-3.43.68-4.62 2.01-1.16 1.33-1.76 3.26-1.76 5.75s.59 4.42 1.76 5.75c1.19 1.33 2.72 2.01 4.62 2.01 3.31 0 5.24-2.18 5.47-5.47h-4.29zm19.18-4.33c-.54-.25-1.08-.4-1.67-.4-1.08 0-2.01.62-2.8 1.84s-1.19 2.92-1.19 5.1v5.41h-2.38V88.38H162v2.44c.82-1.59 2.61-2.66 4.19-2.66.76 0 1.42.14 1.95.42l-.47 2.12zm3.33-2.32h2.38v9.43c0 1.95.82 2.92 2.46 2.92 1.11 0 2.07-.59 2.86-1.76.82-1.16 1.22-2.72 1.22-4.62v-5.98h2.38v14.27h-2.38v-2.63c-1.08 1.9-2.66 2.86-4.73 2.86-2.61 0-4.19-1.61-4.19-4.45V88.38zm20.09 13.87c-.82-.42-1.39-.85-1.64-1.3v7.48h-2.38V88.38h2.38v1.76c.71-1.1 2.46-1.98 4.16-1.98 4.08 0 6.34 2.95 6.34 7.36s-2.27 7.36-6.34 7.36c-.85 0-1.7-.2-2.52-.63zm-1.84-6.74c0 3.09 1.56 5.21 4.13 5.21 2.49 0 4.13-2.12 4.13-5.21s-1.64-5.21-4.13-5.21c-2.57 0-4.13 2.13-4.13 5.21zm13.73 0c0-2.01.62-3.74 1.87-5.18 1.27-1.44 2.92-2.18 4.98-2.18s3.71.74 4.96 2.18c1.27 1.44 1.9 3.17 1.9 5.18s-.62 3.77-1.9 5.21c-1.25 1.44-2.89 2.15-4.96 2.15s-3.71-.71-4.98-2.15c-1.25-1.44-1.87-3.2-1.87-5.21zm2.44 0c0 1.42.4 2.63 1.16 3.68.79 1.02 1.87 1.53 3.26 1.53s2.46-.51 3.23-1.53c.79-1.05 1.19-2.27 1.19-3.68s-.4-2.63-1.19-3.65c-.76-1.05-1.84-1.56-3.23-1.56s-2.46.51-3.26 1.56c-.77 1.02-1.16 2.24-1.16 3.65zm28.42-6.06c-.88-2.29-2.49-3.46-4.9-3.46-1.61 0-2.97.57-4.05 1.73-1.05 1.16-1.59 2.83-1.59 5.01s.54 3.85 1.59 5.01c1.08 1.16 2.44 1.73 4.05 1.73 2.41 0 4.02-1.16 4.9-3.46l3.31.85c-.93 3.82-3.91 6-8.21 6-2.63 0-4.84-.91-6.66-2.69s-2.72-4.28-2.72-7.45.91-5.66 2.72-7.45 4.02-2.69 6.66-2.69c4.3 0 7.28 2.18 8.21 6l-3.31.87zm6.22-6.85h3.51v8.07c1.05-1.67 2.58-2.52 4.53-2.52 2.75 0 4.45 1.47 4.45 4.3v10.2h-3.51V93.7c0-1.7-.71-2.55-2.12-2.55-1.81 0-3.34 1.87-3.34 5.47v6.03h-3.51V82.6zm15.52 12.91c0-2.12.65-3.88 1.95-5.27s3.06-2.1 5.3-2.1 3.99.71 5.3 2.1 1.95 3.14 1.95 5.27-.65 3.91-1.95 5.3-3.06 2.07-5.3 2.07-3.99-.68-5.3-2.07-1.95-3.17-1.95-5.3zm3.68 0c0 1.22.31 2.27.96 3.12.65.82 1.5 1.25 2.61 1.25s1.95-.42 2.61-1.25c.65-.85.96-1.9.96-3.12s-.31-2.27-.96-3.09c-.65-.85-1.5-1.27-2.61-1.27s-1.95.42-2.61 1.27c-.65.83-.96 1.88-.96 3.09zm25.87 7.14h-3.51v-9.52c0-1.33-.59-1.98-1.76-1.98-1.81 0-3.09 2.18-3.09 6.26v5.24h-3.51V88.38h3.51v2.29c1.1-1.67 2.49-2.52 4.11-2.52 1.84 0 3.4.99 3.99 2.95 1.1-1.95 2.55-2.95 4.36-2.95 2.63 0 4.25 1.64 4.25 4.39v10.11h-3.51v-9.52c0-1.33-.59-1.98-1.76-1.98-1.81 0-3.09 2.1-3.09 5.95v5.55zm24.92-6h-9.83c.08 1.73 1.33 3.23 3.37 3.23 1.44 0 2.61-.74 3.46-2.21l2.83 1.05c-1.22 2.78-3.37 4.16-6.49 4.16-4.9 0-6.85-3.96-6.85-7.36s1.95-7.36 6.85-7.36c2.27 0 4.11.93 5.13 2.38 1.02 1.39 1.53 3.06 1.53 4.67v1.44zm-9.75-2.78h6.15c-.4-1.81-1.42-2.72-3.06-2.72-1.67 0-2.83 1.22-3.09 2.72zm16.39 8.78h-3.51V88.38h3.51v2.32c1.02-1.61 2.55-2.55 4.22-2.55.54 0 1.1.08 1.73.28l-.65 3.26c-.42-.25-.93-.4-1.47-.4-2.24 0-3.82 1.95-3.82 6.29v5.07z" class="st0"/>
</svg>
